<svg id="Capa_1" data-name="Capa 1" xmlns="http://www.w3.org/2000/svg" viewBox="0 0 365.03 364.47"><defs><style>.cls-1{fill:#ef4444;}.cls-2{fill:#fff;}.cls-3{fill:#3b82f6;}.cls-4{fill:#34d399;}.cls-5{fill:#7c3aed;}.cls-6{fill:#fbbf24;}.cls-7{fill:#db2777;}</style></defs><circle class="cls-1" cx="182.6" cy="181.73" r="179.83"/><path class="cls-2" d="M275.84,169.74H230.26V124.16a4.73,4.73,0,0,0-4.73-4.73H174.47a4.73,4.73,0,0,0-4.73,4.73v45.58H124.16a4.73,4.73,0,0,0-4.73,4.73v51.06a4.73,4.73,0,0,0,4.73,4.73h45.58v45.57a4.74,4.74,0,0,0,4.73,4.74h51.06a4.73,4.73,0,0,0,4.73-4.74V230.26h45.58a4.73,4.73,0,0,0,4.73-4.73V174.47A4.73,4.73,0,0,0,275.84,169.74Z" transform="translate(-17.4 -18.27)"/><circle class="cls-3" cx="182.6" cy="181.95" r="179.83"/><path class="cls-2" d="M149.66,184,102.81,221.8a4,4,0,0,0-1.5,3.13v43.83a4,4,0,0,0,4,4h46.86a4,4,0,0,0,4-4V187.15a4,4,0,0,0-2.29-3.63A4,4,0,0,0,149.66,184Zm-1.5,80.72h-38.8V226.86l38.8-31.3Z" transform="translate(-17.4 -18.27)"/><path class="cls-2" d="M183.31,159.55l-12.09,7.56a4,4,0,0,0-1.9,3.41v98.24a4,4,0,0,0,4,4H220.2a4,4,0,0,0,4-4V199.24a4,4,0,0,0-1.12-2.79l-34.76-36.27A4,4,0,0,0,183.31,159.55Zm32.87,105.19h-38.8v-92l7.42-4.64,31.38,32.74Z" transform="translate(-17.4 -18.27)"/><path class="cls-2" d="M269.23,168.41l-30.71,30.72a2.81,2.81,0,0,0-.83,2V270a2.83,2.83,0,0,0,2.83,2.83h30.71a2.83,2.83,0,0,0,2.82-2.83V170.41a2.82,2.82,0,0,0-4.82-2Zm-.82,98.74H243.34V202.29l25.07-25.07Z" transform="translate(-17.4 -18.27)"/><path class="cls-2" d="M295.64,124.07l-66.45,48.86-38.68-40.49a4.78,4.78,0,0,0-5.73-.74L98.92,191.43c-5,3.45-.24,11.66,4.78,8.17q41.42-28.82,82.84-57.62l38.74,40.56c1.32,1.38,4.09,1.94,5.73.74q34.71-25.51,69.41-51C305.28,128.67,300.56,120.46,295.64,124.07Z" transform="translate(-17.4 -18.27)"/><circle class="cls-4" cx="183.69" cy="180.89" r="180.89"/><path class="cls-2" d="M285.25,269.34a18.59,18.59,0,0,0,18.58-18.51l.34-102.66a18.61,18.61,0,0,0-18.51-18.64L117,129h-.06a18.59,18.59,0,0,0-18.58,18.51L98,250.15a18.56,18.56,0,0,0,18.51,18.64l168.65.55Zm-152-16h-5.71v-.1h-.37a9.39,9.39,0,0,1-9.37-9.43l.29-89.8a9.42,9.42,0,0,1,9.41-9.37h0L275,145.1a9.43,9.43,0,0,1,9.38,9.44l-.3,89.79a9.42,9.42,0,0,1-9.4,9.38h0l-141.43-.47Z" transform="translate(-17.4 -18.27)"/><path class="cls-2" d="M264,160H224.86a2,2,0,0,0-2,2v52a2,2,0,0,0,2,2H264a2,2,0,0,0,1.95-2V162A2,2,0,0,0,264,160Zm-2,52H226.82V163.92H262Z" transform="translate(-17.4 -18.27)"/><path class="cls-2" d="M136.58,215.88h60.61a3.91,3.91,0,0,0,0-7.82H136.58a3.91,3.91,0,0,0,0,7.82Z" transform="translate(-17.4 -18.27)"/><path class="cls-2" d="M225.54,226.63h-89a3.91,3.91,0,0,0,0,7.82h89a3.91,3.91,0,0,0,0-7.82Z" transform="translate(-17.4 -18.27)"/><circle class="cls-5" cx="182.23" cy="182.18" r="182.18"/><path class="cls-2" d="M199.64,301.27A100.82,100.82,0,1,0,98.82,200.45,100.93,100.93,0,0,0,199.64,301.27Zm0-180.33a79.51,79.51,0,1,1-79.51,79.51A79.6,79.6,0,0,1,199.64,120.94Z" transform="translate(-17.4 -18.27)"/><path class="cls-2" d="M177.9,252.73a4.74,4.74,0,0,0,2.22.55,4.65,4.65,0,0,0,2.63-.8l71.41-48.12a4.72,4.72,0,0,0,0-7.82l-71.41-48.12a4.72,4.72,0,0,0-7.35,3.91v96.24A4.71,4.71,0,0,0,177.9,252.73Zm6.94-91.53,58.24,39.25L184.84,239.7Z" transform="translate(-17.4 -18.27)"/><circle class="cls-6" cx="182.79" cy="182.23" r="182.23"/><path class="cls-2" d="M288.41,149.42v-.91h-4.13c-1.52-3.71-7-8.21-29.83-11.77-17.24-2.68-40.1-4.16-64.37-4.16s-47.14,1.48-64.38,4.16c-23.1,3.6-28.48,8.17-29.9,11.95l-.85,0,0,5.08c0,33.5,12.38,65,34,86.74-17.11,4.62-25.79,11-25.79,18.93,0,20.5,57.91,25.92,88.53,25.92S280.2,280,280.2,259.48c0-8-8.68-14.33-25.83-19,1.21-1.21,2.33-2.37,3.36-3.5a109,109,0,0,0,17,1.44c16,0,29-4.08,38.6-12.14,10.71-9,16.37-22.26,16.37-38.46C329.72,163.05,307.71,151.71,288.41,149.42Zm-1.07,21.49c7.91,2.2,16.69,7.2,16.69,18.56,0,9.28-3.1,16.79-9,21.7-5.63,4.71-13.53,7-23.51,6.9A126.43,126.43,0,0,0,287.34,170.91Zm-97.27-28.79c45.13,0,76.19,5.12,84,9.25-7.77,4.14-38.83,9.26-84,9.26s-76.21-5.12-84-9.26C113.86,147.24,144.94,142.12,190.07,142.12Zm80.6,117.36c0,5.77-30,16.37-79,16.37s-79-10.6-79-16.37c0-2.33,6.63-7.23,24.82-11.24,16,12.82,34.76,19.59,54.16,19.59s38.07-6.78,54.13-19.6C264,252.24,270.67,257.14,270.67,259.48Zm-79-1.19c-45.92,0-83.83-42.6-87-97.32,4.9,1.95,11.8,3.6,21,5,17.24,2.69,40.1,4.17,64.38,4.17s47.13-1.48,64.37-4.17c11.47-1.78,19.48-3.93,24.34-6.54C276.32,215.05,238.41,258.29,191.67,258.29ZM307.23,219c-9.67,8.08-24.3,11.3-42.4,9.36l.78-1.08c2.56.24,4.67.35,6.61.35,1.49,0,2.95,0,4.38-.14,10-.68,18.22-3.7,24.58-9a34.2,34.2,0,0,0,11.6-20.3,46.21,46.21,0,0,0,.79-8.72c0-19.5-17-26.13-25.36-28.21,0-.72.08-1.44.1-2.15A58.08,58.08,0,0,1,302.42,163c11.78,5.08,17.76,13.44,17.76,24.84C320.18,201.15,315.7,211.92,307.23,219Z" transform="translate(-17.4 -18.27)"/><circle class="cls-7" cx="182.23" cy="182.23" r="182.23"/><path class="cls-2" d="M261,146.67c-8.1-3.07-15.75-2.56-23.27-.77.44-.48.94-.89,1.36-1.4,8.3-10.14,11.17-25.29,7-37.66a2.36,2.36,0,0,0-.33-.56,2.11,2.11,0,0,0-2.38-2.08A49,49,0,0,0,201.26,138c-4.41-13.14-14.2-25.38-24.53-33.05a2,2,0,0,0-2.13-.27l-.21.12a3.25,3.25,0,0,0-.42.31c-.1.09-.21.12-.3.23-3.95,4.42-6,11-7.5,16.62a2.27,2.27,0,0,0,.53,2.22,2.4,2.4,0,0,0,1.24.89,42.29,42.29,0,0,1,28.44,29.31c-15.61-2.61-28.91-12.46-45.81-10.36-16.29,2-29,13.27-35.74,27.9-17.46,37.72,2.67,83,27.3,112.7,12.89,15.55,24.88,13.86,42.54,8,12.8-4.25,21.49-1.8,33.94,1.33,6.9,1.73,14.66,3.54,21.81,2.41,17.15-2.71,28.22-23.56,34.39-37.8,9.09-21,16.11-42.52,15.44-65.63C289.69,173.75,279.83,153.82,261,146.67ZM241.6,109.5c3.15,11.06.45,25-7.71,33.28-7.52,7.68-19.1,10.27-29.55,11.78a2.31,2.31,0,0,0,.09-.67C202.83,132.21,220.06,112.25,241.6,109.5Zm-69.94,11.58A36.6,36.6,0,0,1,176,110.73c9.5,7.7,18.3,20,21.43,32.47A47.54,47.54,0,0,0,171.66,121.08Zm76,158.57c-15.5,14.49-32.77-.91-50.13-.19-8.3.34-15.61,4.69-23.53,6.66-14.15,3.52-22.5-6.71-29.54-17.38-11.9-18-22.9-37.57-24.31-59.59s8.2-49.7,32.64-54.23c17.51-3.23,30.92,8.46,47.56,9.72a2.13,2.13,0,0,0,1,.09,51.07,51.07,0,0,0,14.09-2.56A58.3,58.3,0,0,0,222,160c9.86-3.4,19.64-6.94,29.9-4.14,27.86,7.61,29.52,42.27,24.24,65.42C271.58,241.16,262.85,265.48,247.67,279.65Z" transform="translate(-17.4 -18.27)"/><path class="cls-2" d="M154.53,164.21c-17.07,7-25.7,28.55-22.83,45.91.53,3.2,5.41,1.84,4.88-1.35-2.37-14.31,5-33.79,19.29-39.68C158.84,167.87,157.54,163,154.53,164.21Z" transform="translate(-17.4 -18.27)"/><path class="cls-2" d="M135.06,220.57c-3.25,0-3.26,5.06,0,5.06S138.32,220.57,135.06,220.57Z" transform="translate(-17.4 -18.27)"/></svg>