<svg id="Capa_1" data-name="Capa 1" xmlns="http://www.w3.org/2000/svg" viewBox="0 0 359.65 359.88"><defs><style>.cls-1{fill:#ef4444;}.cls-2{fill:#fff;}.cls-3{fill:#3b82f6;}</style></defs><circle class="cls-1" cx="179.83" cy="179.83" r="179.83"/><path class="cls-2" d="M275.84,169.74H230.26V124.16a4.73,4.73,0,0,0-4.73-4.73H174.47a4.73,4.73,0,0,0-4.73,4.73v45.58H124.16a4.73,4.73,0,0,0-4.73,4.73v51.06a4.73,4.73,0,0,0,4.73,4.73h45.58v45.57a4.74,4.74,0,0,0,4.73,4.74h51.06a4.73,4.73,0,0,0,4.73-4.74V230.26h45.58a4.73,4.73,0,0,0,4.73-4.73V174.47A4.73,4.73,0,0,0,275.84,169.74Z" transform="translate(-20.17 -20.17)"/><circle class="cls-3" cx="179.83" cy="180.05" r="179.83"/><path class="cls-2" d="M149.66,184,102.81,221.8a4,4,0,0,0-1.5,3.13v43.83a4,4,0,0,0,4,4h46.86a4,4,0,0,0,4-4V187.15a4,4,0,0,0-2.29-3.63A4,4,0,0,0,149.66,184Zm-1.5,80.72h-38.8V226.86l38.8-31.3Z" transform="translate(-20.17 -20.17)"/><path class="cls-2" d="M183.31,159.55l-12.09,7.56a4,4,0,0,0-1.9,3.41v98.24a4,4,0,0,0,4,4H220.2a4,4,0,0,0,4-4V199.24a4,4,0,0,0-1.12-2.79l-34.76-36.27A4,4,0,0,0,183.31,159.55Zm32.87,105.19h-38.8v-92l7.42-4.64,31.38,32.74Z" transform="translate(-20.17 -20.17)"/><path class="cls-2" d="M269.23,168.41l-30.71,30.72a2.81,2.81,0,0,0-.83,2V270a2.83,2.83,0,0,0,2.83,2.83h30.71a2.83,2.83,0,0,0,2.82-2.83V170.41a2.82,2.82,0,0,0-4.82-2Zm-.82,98.74H243.34V202.29l25.07-25.07Z" transform="translate(-20.17 -20.17)"/><path class="cls-2" d="M295.64,124.07l-66.45,48.86-38.68-40.49a4.78,4.78,0,0,0-5.73-.74L98.92,191.43c-5,3.45-.24,11.66,4.78,8.17q41.42-28.82,82.84-57.62l38.74,40.56c1.32,1.38,4.09,1.94,5.73.74q34.71-25.51,69.41-51C305.28,128.67,300.56,120.46,295.64,124.07Z" transform="translate(-20.17 -20.17)"/></svg>