<svg id="Capa_1" data-name="Capa 1" xmlns="http://www.w3.org/2000/svg" viewBox="0 0 359.65 359.65"><defs><style>.cls-1{fill:#ef4444;}.cls-2{fill:#fff;}</style></defs><circle class="cls-1" cx="179.83" cy="179.83" r="179.83"/><path class="cls-2" d="M275.84,169.74H230.26V124.16a4.73,4.73,0,0,0-4.73-4.73H174.47a4.73,4.73,0,0,0-4.73,4.73v45.58H124.16a4.73,4.73,0,0,0-4.73,4.73v51.06a4.73,4.73,0,0,0,4.73,4.73h45.58v45.57a4.74,4.74,0,0,0,4.73,4.74h51.06a4.73,4.73,0,0,0,4.73-4.74V230.26h45.58a4.73,4.73,0,0,0,4.73-4.73V174.47A4.73,4.73,0,0,0,275.84,169.74Z" transform="translate(-20.17 -20.17)"/></svg>