<?xml version="1.0" encoding="UTF-8"?>
<!DOCTYPE svg PUBLIC "-//W3C//DTD SVG 1.1//EN" "http://www.w3.org/Graphics/SVG/1.1/DTD/svg11.dtd">
<!-- Creator: CorelDRAW -->
<svg xmlns="http://www.w3.org/2000/svg" xml:space="preserve" width="1056px" height="1056px" style="shape-rendering:geometricPrecision; text-rendering:geometricPrecision; image-rendering:optimizeQuality; fill-rule:evenodd; clip-rule:evenodd"
viewBox="0 0 1056 1056"
 xmlns:xlink="http://www.w3.org/1999/xlink">
 <defs>
  <style type="text/css">
   <![CDATA[
    .fil2 {fill:#1048A4}
    .fil0 {fill:#3B82F6}
    .fil1 {fill:#D01D6E}
   ]]>
  </style>
 </defs>
 <g id="Capa_x0020_1">
  <metadata id="CorelCorpID_0Corel-Layer"/>
  <g id="_314131992">
   <path id="_314131704" class="fil0" d="M825.53 906.294c-7.12441,-3.02211 -42.8538,-52.1337 -50.863,-62.027 -12.5809,-15.5399 -145.754,-187.788 -151.798,-191.883 -17.0502,6.21014 -28.4803,19.1531 -62.2859,26.4537 -26.9836,5.82765 -57.3373,3.33279 -79.9933,-4.63332 -82.1322,-28.8794 -124.47,-120.831 -89.3541,-201.759 21.8037,-50.2481 72.3545,-90.8818 137.941,-90.8818l-0.0207874 -329.052c-98.1392,0 -197.382,32.6083 -274.558,87.1722 -6.74306,4.76712 -12.9944,9.75609 -19.9351,14.9322 -151.945,113.313 -232.22,341.227 -153.492,546.372 102.622,267.406 412.961,383.821 655.014,262.411 15.6276,-7.83836 31.926,-15.5293 46.6689,-25.2435 10.4357,-6.87647 37.6362,-23.3378 42.6758,-31.861z"/>
   <path id="_314131776" class="fil1" d="M529.177 381.563c82.8816,0 150.35,67.5216 150.35,150.382l329.052 -0.0260787c0,-98.603 -31.9759,-194.913 -86.2768,-273.278 -51.0765,-73.7129 -115.62,-124.472 -196.258,-163.302 -54.2166,-26.1075 -132.616,-42.8277 -196.888,-42.8277l0.0207874 329.052z"/>
   <path id="_314131968" class="fil2" d="M622.868 652.384c6.04422,4.09436 139.217,176.343 151.798,191.883 8.0092,9.89329 43.7386,59.0049 50.863,62.027 18.1727,-13.0987 56.5659,-50.1468 70.6843,-68.3357 11.1504,-14.3649 19.7972,-24.4176 29.9917,-39.7414 9.08183,-13.6513 18.8387,-28.2051 26.4733,-43.259 34.2085,-67.4487 55.8996,-141.663 55.8996,-223.039l-329.052 0.0260787c0,39.7285 -13.7613,68.6411 -35.1458,95.5835 -15.956,20.1014 -19.2299,15.1412 -21.5123,24.8553z"/>
  </g>
 </g>
</svg>
